<?xml version="1.0" standalone="no"?>
<!DOCTYPE svg PUBLIC "-//W3C//DTD SVG 20010904//EN"
 "http://www.w3.org/TR/2001/REC-SVG-20010904/DTD/svg10.dtd">
<svg version="1.0" xmlns="http://www.w3.org/2000/svg"
 width="1024.000000pt" height="640.000000pt" viewBox="0 0 1024.000000 640.000000"
 preserveAspectRatio="xMidYMid meet">
<metadata>
Created by potrace 1.16, written by Peter Selinger 2001-2019
</metadata>
<g transform="translate(0.000000,640.000000) scale(0.100000,-0.100000)"
fill="#E6E3D5" stroke="none">
<path d="M2950 5475 c0 -8 11 -45 26 -82 39 -104 44 -139 29 -187 -7 -22 -68
-201 -135 -396 -594 -1732 -797 -2334 -816 -2425 -39 -190 -26 -412 31 -524
65 -129 250 -221 442 -221 243 0 393 98 511 335 58 117 96 249 153 535 113
569 134 649 207 785 66 123 119 131 208 32 104 -116 203 -334 379 -837 221
-632 209 -603 282 -671 93 -87 66 -84 743 -84 595 0 595 0 595 24 0 20 -7 26
-45 35 -67 17 -112 49 -140 98 -22 39 -25 54 -24 153 0 88 5 123 23 175 27 77
151 290 169 290 6 0 12 -4 12 -9 0 -5 68 -111 150 -237 146 -220 230 -368 230
-403 0 -34 -27 -54 -86 -66 -53 -10 -59 -14 -59 -36 0 -24 0 -24 1094 -27 602
-1 1098 1 1103 6 4 4 -35 78 -87 164 -52 87 -108 183 -125 214 -30 57 -30 57
-30 1165 0 994 -2 1109 -16 1123 -14 14 -69 16 -455 16 -411 0 -439 -1 -439
-17 0 -10 43 -91 95 -181 52 -89 106 -184 120 -210 25 -47 25 -47 25 -947 0
-900 0 -900 -33 -957 -105 -185 -164 -278 -175 -278 -24 0 -178 165 -247 264
-190 276 -565 841 -565 853 0 7 22 43 48 80 27 38 81 116 120 175 175 261 385
475 528 539 60 28 74 38 72 54 -3 20 -12 20 -435 23 -433 2 -433 2 -433 -23 0
-19 6 -26 28 -31 79 -17 135 -51 158 -96 41 -80 36 -237 -12 -366 -24 -63
-131 -252 -143 -252 -4 0 -44 57 -90 128 -45 70 -127 195 -181 277 -54 83
-106 174 -116 203 -18 51 -18 53 1 72 11 11 45 24 75 30 55 10 72 23 63 47 -4
11 -109 13 -602 11 -584 -3 -596 -3 -596 -23 0 -14 13 -24 48 -36 58 -21 134
-78 209 -157 58 -61 660 -954 665 -987 3 -19 -48 -96 -240 -360 -83 -114 -231
-273 -324 -346 -58 -47 -83 -55 -83 -27 0 13 -123 371 -527 1533 -157 451
-332 957 -389 1125 -58 168 -130 377 -160 465 -96 277 -178 417 -267 449 -29
11 -111 19 -264 26 -294 13 -303 13 -303 -5z m130 -371 c0 -22 38 -134 225
-664 86 -245 195 -555 241 -689 46 -134 96 -270 111 -303 14 -32 23 -61 20
-65 -4 -3 -29 15 -56 40 -85 80 -165 75 -246 -15 -89 -99 -124 -204 -225 -678
-88 -409 -120 -500 -215 -607 -119 -134 -341 -176 -504 -94 -189 96 -260 326
-195 637 17 84 74 256 429 1289 206 600 374 1096 391 1153 5 18 24 15 24 -4z"/>
<path d="M7361 5295 c-71 -20 -110 -45 -165 -106 -56 -63 -81 -131 -80 -224 2
-130 71 -237 192 -297 39 -19 63 -23 142 -23 87 0 100 3 148 30 107 59 182
180 182 294 0 54 -26 145 -54 188 -75 117 -230 176 -365 138z"/>
<path d="M7647 1286 c-119 -33 -187 -124 -187 -250 0 -156 100 -256 254 -256
61 0 134 23 165 51 19 17 21 31 21 114 0 95 0 95 -85 95 -85 0 -85 0 -85 -30
0 -31 3 -33 60 -34 34 -1 35 -3 38 -42 4 -49 -19 -73 -77 -81 -62 -8 -109 5
-151 43 -100 91 -76 268 43 313 37 14 115 14 156 0 38 -13 64 2 59 35 -6 39
-132 64 -211 42z"/>
<path d="M3792 1282 c-9 -7 -12 -63 -10 -248 3 -239 3 -239 38 -239 35 0 35 0
36 81 0 44 3 85 7 91 4 6 20 8 39 4 27 -5 38 -16 62 -61 52 -100 75 -130 99
-130 49 0 52 14 17 76 -18 33 -44 77 -59 98 -21 32 -23 40 -11 44 8 3 29 19
47 37 60 60 52 166 -18 216 -44 31 -213 52 -247 31z m181 -74 c32 -12 47 -35
47 -72 0 -65 -44 -100 -120 -94 -43 3 -43 3 -42 88 0 47 1 88 1 93 1 9 76 -1
114 -15z"/>
<path d="M4707 1283 c-18 -5 -130 -147 -149 -189 -6 -13 -18 -24 -25 -24 -11
0 -14 12 -12 53 2 28 2 76 1 105 -2 52 -2 52 -37 52 -35 0 -35 0 -35 -244 0
-217 2 -245 16 -250 9 -4 25 -4 35 -1 16 5 19 20 21 113 3 100 4 107 24 110
16 2 32 -15 75 -80 93 -142 115 -161 160 -137 18 9 14 18 -66 134 -47 68 -85
131 -85 140 0 9 32 59 71 110 80 107 81 128 6 108z"/>
<path d="M2277 1273 c-11 -19 -98 -466 -93 -479 8 -20 53 -17 65 4 5 9 20 77
32 149 23 129 35 157 47 111 11 -45 124 -258 136 -258 7 0 42 61 77 135 35 74
68 134 72 135 10 0 10 -1 37 -145 12 -66 26 -126 32 -132 12 -15 54 -17 63 -3
5 8 -74 417 -91 473 -3 9 -10 15 -15 11 -11 -7 -136 -253 -153 -301 -6 -18
-15 -33 -19 -33 -5 0 -46 76 -92 170 -46 93 -86 170 -89 170 -3 0 -7 -3 -9 -7z"/>
<path d="M3168 1138 c-36 -79 -87 -187 -112 -240 -44 -95 -45 -98 -25 -108 31
-17 53 -4 77 45 22 45 22 45 137 45 116 0 116 0 135 -45 21 -48 58 -68 85 -45
16 14 19 6 -120 303 -49 103 -94 187 -100 187 -6 0 -41 -64 -77 -142z m92 -14
c0 -9 16 -50 35 -90 19 -40 35 -75 35 -78 0 -3 -38 -6 -85 -6 -47 0 -85 2 -85
4 0 2 11 26 24 53 13 26 30 67 37 91 12 41 39 59 39 26z"/>
<path d="M5100 1035 c0 -286 -15 -259 140 -247 93 7 95 8 95 32 0 24 -3 25
-79 30 -78 5 -78 5 -80 83 -1 77 -1 77 51 77 42 0 53 4 58 19 12 37 -4 51 -59
51 -52 0 -52 0 -52 70 0 69 0 69 71 72 68 3 70 4 73 31 3 27 3 27 -107 27
-111 0 -111 0 -111 -245z"/>
<path d="M5644 1265 c-13 -34 3 -45 66 -45 60 0 60 0 60 -214 0 -186 2 -215
16 -220 24 -9 31 -8 49 10 14 15 16 43 14 218 -2 201 -2 201 57 206 55 5 59 7
59 30 0 25 0 25 -158 28 -134 2 -158 0 -163 -13z"/>
<path d="M6304 1267 c-2 -7 -3 -116 -2 -242 3 -230 3 -230 36 -233 32 -3 32
-3 32 242 0 246 0 246 -30 246 -17 0 -33 -6 -36 -13z"/>
<path d="M6748 1193 c-1 -68 0 -260 2 -396 0 -5 15 -7 33 -5 32 3 32 3 32 156
0 83 2 152 6 152 3 0 53 -55 111 -122 125 -145 165 -184 175 -174 9 8 11 454
2 468 -3 5 -19 8 -35 6 -29 -3 -29 -3 -29 -155 -1 -84 -3 -155 -7 -158 -3 -3
-18 11 -34 32 -31 42 -244 283 -250 283 -2 0 -5 -39 -6 -87z"/>
<path d="M9765 580 c-21 -46 -66 -90 -113 -109 -41 -17 -40 -26 2 -46 45 -21
93 -70 118 -119 21 -40 21 -40 43 4 27 53 65 90 120 118 39 20 39 20 -2 40
-51 27 -102 77 -120 119 -7 18 -17 33 -22 33 -4 0 -16 -18 -26 -40z"/>
</g>
</svg>
